# xmcd
#
# Track frame offsets:
#	150
#	15659
#	38073
#	56147
#	70540
#	85801
#	104339
#	124978
#	140958
#	160323
#
# Disc length: 2371 seconds
#
# Revision: 0
# Processed by: cddbd v1.4PL0 Copyright (c) Steve Scherf et al.
# Submitted via: EasyCDDAExtractor 4.6.9.1
#
DISCID=8909410a
DTITLE=Various Artist - MUFUKUH Sound
DYEAR=1900
DGENRE=
TTITLE0=Missy Eliot - Get Your Freak On
TTITLE1=Janet Jackson - Any Time, Any Place
TTITLE2=Mary J. Blige - Family Affair
TTITLE3=Toni Estes - Hot
TTITLE4=Alicia Keys - Fallin'
TTITLE5=Ja Rule - Always On Time
TTITLE6=Eric Bonet - Love Don't Love Me
TTITLE7=Salt n' Peppa - None Of Ya Business
TTITLE8=Son By Four - With You
TTITLE9=Nelly Furtado - ...On The Radio
EXTD=
EXTT0=
EXTT1=
EXTT2=
EXTT3=
EXTT4=
EXTT5=
EXTT6=
EXTT7=
EXTT8=
EXTT9=
PLAYORDER=
